<svg id="visual" viewBox="0 0 900 600" width="900" height="600" xmlns="http://www.w3.org/2000/svg" xmlns:xlink="http://www.w3.org/1999/xlink" version="1.1"><rect x="0" y="0" width="900" height="600" fill="#002233"></rect><path d="M0 495L15 472.8C30 450.7 60 406.3 90 385C120 363.7 150 365.3 180 387.2C210 409 240 451 270 479.5C300 508 330 523 360 511.3C390 499.7 420 461.3 450 460.5C480 459.7 510 496.3 540 476.8C570 457.3 600 381.7 630 364.5C660 347.3 690 388.7 720 431C750 473.3 780 516.7 810 499C840 481.3 870 402.7 885 363.3L900 324L900 601L885 601C870 601 840 601 810 601C780 601 750 601 720 601C690 601 660 601 630 601C600 601 570 601 540 601C510 601 480 601 450 601C420 601 390 601 360 601C330 601 300 601 270 601C240 601 210 601 180 601C150 601 120 601 90 601C60 601 30 601 15 601L0 601Z" fill="#0066FF" stroke-linecap="round" stroke-linejoin="miter"></path></svg>